{
    "asset" : {
        "generator" : "Khronos glTF Blender I/O v1.3.48",
        "version" : "2.0"
    },
    "scene" : 0,
    "scenes" : [
        {
            "name" : "Scene",
            "nodes" : [
                1
            ]
        }
    ],
    "nodes" : [
        {
            "mesh" : 0,
            "name" : "Cylinder.001",
            "rotation" : [
                0,
                -0.7071067094802856,
                0,
                0.70710688829422
            ],
            "scale" : [
                0.531478226184845,
                0.531478226184845,
                0.531478226184845
            ],
            "translation" : [
                -0.01836114004254341,
                3,
                0
            ]
        },
        {
            "children" : [
                0
            ],
            "mesh" : 1,
            "name" : "Cylinder",
            "rotation" : [
                0.5000000596046448,
                -0.5000000596046448,
                -0.4999999701976776,
                0.4999999403953552
            ],
            "translation" : [
                12,
                5.40144157409668,
                0
            ]
        }
    ],
    "materials" : [
        {
            "doubleSided" : true,
            "emissiveFactor" : [
                0,
                0,
                0
            ],
            "name" : "Laser Head",
            "pbrMetallicRoughness" : {
                "baseColorFactor" : [
                    0.800000011920929,
                    0.800000011920929,
                    0.800000011920929,
                    1
                ],
                "metallicFactor" : 0,
                "roughnessFactor" : 0.5551180839538574
            }
        },
        {
            "doubleSided" : true,
            "emissiveFactor" : [
                0,
                0,
                0
            ],
            "name" : "Laser Base",
            "pbrMetallicRoughness" : {
                "baseColorFactor" : [
                    0.017182696610689163,
                    0.017182696610689163,
                    0.017182696610689163,
                    1
                ],
                "metallicFactor" : 0.3070865869522095,
                "roughnessFactor" : 0.7047244310379028
            }
        }
    ],
    "meshes" : [
        {
            "name" : "Cylinder.006",
            "primitives" : [
                {
                    "attributes" : {
                        "POSITION" : 0,
                        "NORMAL" : 1,
                        "TEXCOORD_0" : 2
                    },
                    "indices" : 3,
                    "material" : 0
                }
            ]
        },
        {
            "name" : "Cylinder.004",
            "primitives" : [
                {
                    "attributes" : {
                        "POSITION" : 4,
                        "NORMAL" : 5,
                        "TEXCOORD_0" : 6
                    },
                    "indices" : 7,
                    "material" : 1
                }
            ]
        }
    ],
    "accessors" : [
        {
            "bufferView" : 0,
            "componentType" : 5126,
            "count" : 36,
            "max" : [
                0.866025447845459,
                -1.881544828414917,
                1.0000001192092896
            ],
            "min" : [
                -0.866025447845459,
                -3.763089179992676,
                -0.9999998807907104
            ],
            "type" : "VEC3"
        },
        {
            "bufferView" : 1,
            "componentType" : 5126,
            "count" : 36,
            "type" : "VEC3"
        },
        {
            "bufferView" : 2,
            "componentType" : 5126,
            "count" : 36,
            "type" : "VEC2"
        },
        {
            "bufferView" : 3,
            "componentType" : 5123,
            "count" : 60,
            "type" : "SCALAR"
        },
        {
            "bufferView" : 4,
            "componentType" : 5126,
            "count" : 84,
            "max" : [
                4.40144157409668,
                1,
                1
            ],
            "min" : [
                -0.866025447845459,
                -1.9866528511047363,
                -1.0000001192092896
            ],
            "type" : "VEC3"
        },
        {
            "bufferView" : 5,
            "componentType" : 5126,
            "count" : 84,
            "type" : "VEC3"
        },
        {
            "bufferView" : 6,
            "componentType" : 5126,
            "count" : 84,
            "type" : "VEC2"
        },
        {
            "bufferView" : 7,
            "componentType" : 5123,
            "count" : 132,
            "type" : "SCALAR"
        }
    ],
    "bufferViews" : [
        {
            "buffer" : 0,
            "byteLength" : 432,
            "byteOffset" : 0
        },
        {
            "buffer" : 0,
            "byteLength" : 432,
            "byteOffset" : 432
        },
        {
            "buffer" : 0,
            "byteLength" : 288,
            "byteOffset" : 864
        },
        {
            "buffer" : 0,
            "byteLength" : 120,
            "byteOffset" : 1152
        },
        {
            "buffer" : 0,
            "byteLength" : 1008,
            "byteOffset" : 1272
        },
        {
            "buffer" : 0,
            "byteLength" : 1008,
            "byteOffset" : 2280
        },
        {
            "buffer" : 0,
            "byteLength" : 672,
            "byteOffset" : 3288
        },
        {
            "buffer" : 0,
            "byteLength" : 264,
            "byteOffset" : 3960
        }
    ],
    "buffers" : [
        {
            "byteLength" : 4224,
            "uri" : "data:application/octet-stream;base64,"
        }
    ]
}
