{
    "asset" : {
        "generator" : "Khronos glTF Blender I/O v1.2.75",
        "version" : "2.0"
    },
    "scene" : 0,
    "scenes" : [
        {
            "name" : "Scene",
            "nodes" : [
                1
            ]
        }
    ],
    "nodes" : [
        {
            "mesh" : 0,
            "name" : "Cube.093",
            "translation" : [
                0,
                1.7185192108154297,
                0
            ]
        },
        {
            "children" : [
                0
            ],
            "mesh" : 1,
            "name" : "Cube.094",
            "scale" : [
                0.2909480929374695,
                0.2909480929374695,
                0.2909480929374695
            ],
            "translation" : [
                68,
                2,
                0
            ]
        }
    ],
    "materials" : [
        {
            "doubleSided" : true,
            "emissiveFactor" : [
                0,
                0,
                0
            ],
            "name" : "Laser Head.002",
            "pbrMetallicRoughness" : {
                "baseColorFactor" : [
                    0.800000011920929,
                    0.800000011920929,
                    0.800000011920929,
                    1
                ],
                "metallicFactor" : 0,
                "roughnessFactor" : 0.5551180839538574
            }
        },
        {
            "doubleSided" : true,
            "emissiveFactor" : [
                0,
                0,
                0
            ],
            "name" : "Laser Base.003",
            "pbrMetallicRoughness" : {
                "baseColorFactor" : [
                    0.017182696610689163,
                    0.017182696610689163,
                    0.017182696610689163,
                    1
                ],
                "metallicFactor" : 0.3070865869522095,
                "roughnessFactor" : 0.7047244310379028
            }
        }
    ],
    "meshes" : [
        {
            "name" : "Cube.021",
            "primitives" : [
                {
                    "attributes" : {
                        "POSITION" : 0,
                        "NORMAL" : 1,
                        "TEXCOORD_0" : 2
                    },
                    "indices" : 3,
                    "material" : 0
                }
            ]
        },
        {
            "name" : "Cube.025",
            "primitives" : [
                {
                    "attributes" : {
                        "POSITION" : 4,
                        "NORMAL" : 5,
                        "TEXCOORD_0" : 6
                    },
                    "indices" : 7,
                    "material" : 1
                }
            ]
        }
    ],
    "accessors" : [
        {
            "bufferView" : 0,
            "componentType" : 5126,
            "count" : 102,
            "max" : [
                0.9451910853385925,
                -3.0074095726013184,
                0.859259843826294
            ],
            "min" : [
                -0.859259843826294,
                -3.437039375305176,
                -0.9451858401298523
            ],
            "type" : "VEC3"
        },
        {
            "bufferView" : 1,
            "componentType" : 5126,
            "count" : 102,
            "type" : "VEC3"
        },
        {
            "bufferView" : 2,
            "componentType" : 5126,
            "count" : 102,
            "type" : "VEC2"
        },
        {
            "bufferView" : 3,
            "componentType" : 5123,
            "count" : 192,
            "type" : "SCALAR"
        },
        {
            "bufferView" : 4,
            "componentType" : 5126,
            "count" : 24,
            "max" : [
                1.718519687652588,
                -1.718519687652588,
                1.718519687652588
            ],
            "min" : [
                -1.718519687652588,
                -3.437039375305176,
                -1.718519687652588
            ],
            "type" : "VEC3"
        },
        {
            "bufferView" : 5,
            "componentType" : 5126,
            "count" : 24,
            "type" : "VEC3"
        },
        {
            "bufferView" : 6,
            "componentType" : 5126,
            "count" : 24,
            "type" : "VEC2"
        },
        {
            "bufferView" : 7,
            "componentType" : 5123,
            "count" : 36,
            "type" : "SCALAR"
        }
    ],
    "bufferViews" : [
        {
            "buffer" : 0,
            "byteLength" : 1224,
            "byteOffset" : 0
        },
        {
            "buffer" : 0,
            "byteLength" : 1224,
            "byteOffset" : 1224
        },
        {
            "buffer" : 0,
            "byteLength" : 816,
            "byteOffset" : 2448
        },
        {
            "buffer" : 0,
            "byteLength" : 384,
            "byteOffset" : 3264
        },
        {
            "buffer" : 0,
            "byteLength" : 288,
            "byteOffset" : 3648
        },
        {
            "buffer" : 0,
            "byteLength" : 288,
            "byteOffset" : 3936
        },
        {
            "buffer" : 0,
            "byteLength" : 192,
            "byteOffset" : 4224
        },
        {
            "buffer" : 0,
            "byteLength" : 72,
            "byteOffset" : 4416
        }
    ],
    "buffers" : [
        {
            "byteLength" : 4488,
            "uri" : "data:application/octet-stream;base64,"
        }
    ]
}
